<svg width="24" height="24" viewBox="0 0 24 24" fill="none" xmlns="http://www.w3.org/2000/svg">
<path d="M11.9725 16C11.7891 16.001 11.6074 15.9674 11.4376 15.9011C11.2678 15.8348 11.1134 15.7371 10.9832 15.6136L5.40978 10.2839C5.27986 10.1597 5.17681 10.0122 5.1065 9.84985C5.03619 9.68754 5 9.51356 5 9.33787C5 9.16218 5.03619 8.98821 5.1065 8.82589C5.17681 8.66357 5.27986 8.51609 5.40978 8.39185C5.53969 8.26762 5.69392 8.16907 5.86367 8.10184C6.03341 8.0346 6.21534 8 6.39906 8C6.58279 8 6.76472 8.0346 6.93446 8.10184C7.10421 8.16907 7.25844 8.26762 7.38835 8.39185L11.9725 12.8022L16.5706 8.56507C16.6988 8.42878 16.855 8.31924 17.0295 8.24331C17.2039 8.16738 17.3929 8.12669 17.5846 8.12379C17.7762 8.12088 17.9665 8.15583 18.1433 8.22643C18.3202 8.29704 18.48 8.40179 18.6126 8.53413C18.7453 8.66647 18.8479 8.82356 18.9141 8.99557C18.9804 9.16758 19.0088 9.3508 18.9976 9.53379C18.9864 9.71678 18.9359 9.8956 18.8491 10.0591C18.7624 10.2225 18.6413 10.3671 18.4935 10.4838L12.92 15.6269C12.6652 15.8618 12.3264 15.9952 11.9725 16Z" fill="#1A63F5"/>
</svg>
