<svg width="26" height="26" viewBox="0 0 26 26" fill="none" xmlns="http://www.w3.org/2000/svg">
<path fill-rule="evenodd" clip-rule="evenodd" d="M11.6039 8.01156C12.0581 8.53859 12.0121 9.34561 11.501 9.81409L8.82778 12.2646L20.4285 12.2646C21.1123 12.2646 21.6666 12.8362 21.6666 13.5413C21.6666 14.2465 21.1123 14.8181 20.4285 14.8181L8.82778 14.8181L11.501 17.2686C12.0121 17.7371 12.0581 18.5441 11.6039 19.0711C11.1496 19.5982 10.367 19.6456 9.85594 19.1772L4.7488 14.4956C4.48448 14.2533 4.33325 13.906 4.33325 13.5413C4.33325 13.1766 4.48448 12.8294 4.7488 12.5871L9.85594 7.90553C10.367 7.43705 11.1496 7.48452 11.6039 8.01156Z" fill="#1A63F5"/>
</svg>
