<svg width="10" height="14" viewBox="0 0 10 14" fill="none" xmlns="http://www.w3.org/2000/svg">
<path fill-rule="evenodd" clip-rule="evenodd" d="M8.83734 5.59277C8.43193 5.94222 7.81114 5.90681 7.45078 5.51368L5.5658 3.45733L5.5658 12.381C5.5658 12.9069 5.12608 13.3333 4.58366 13.3333C4.04124 13.3333 3.60152 12.9069 3.60152 12.381L3.60152 3.45733L1.71654 5.51368C1.35617 5.90681 0.735387 5.94222 0.329977 5.59277C-0.0754341 5.24332 -0.111951 4.64135 0.248414 4.24822L3.8496 0.319653C4.03598 0.116331 4.30312 -2.12607e-07 4.58366 -2.00344e-07C4.86419 -1.88081e-07 5.13134 0.116331 5.31772 0.319653L8.9189 4.24823C9.27927 4.64135 9.24275 5.24333 8.83734 5.59277Z" fill="black"/>
</svg>
